<svg width="251" height="53" viewBox="0 0 251 53" fill="none" xmlns="http://www.w3.org/2000/svg">
	<path d="M145.584 33.7066C145.584 45.7109 152.899 52.3605 163.748 52.3605C174.562 52.3605 181.912 45.7109 181.912 33.7066C181.912 21.6672 174.562 15.0176 163.748 15.0176C152.899 15.0176 145.584 21.6672 145.584 33.7066ZM151.814 33.7066C151.814 24.852 156.608 20.0923 163.748 20.0923C170.853 20.0923 175.647 24.852 175.647 33.7066C175.647 42.5261 170.853 47.3208 163.748 47.3208C156.608 47.3208 151.814 42.5261 151.814 33.7066Z" fill="black"/>
	<path d="M187.471 15.8568V51.3347H193.56V30.1259C193.56 23.1612 197.515 20.0114 203.045 20.0114C208.05 20.0114 210.499 22.3913 210.499 27.116V51.3347H216.32V30.1259C216.32 23.1612 220.509 20.0114 226.039 20.0114C230.973 20.0114 233.493 22.3913 233.493 27.116V51.3347H239.583V26.5561C239.583 18.8215 234.823 14.8667 227.544 14.8667C220.649 14.8667 217.125 17.6315 215.41 20.6414H215.119C213.859 17.5266 210.919 14.8667 204.725 14.8667C198.215 14.8667 195.147 17.4566 193.642 19.5914H193.35V15.8568H187.471Z" fill="black"/>
	<path d="M0 26.182C0 42.9811 9.62447 52.3606 24.7436 52.3606C39.7928 52.3606 46.9324 43.0258 46.9324 34.3015H40.679C40.3878 39.6912 36.258 46.8309 24.8486 46.8309C13.3693 46.8309 6.50964 39.3763 6.50964 26.182C6.50964 12.9877 13.3693 5.53311 24.8486 5.53311C36.223 5.53311 40.3878 12.5677 40.539 17.7124H43.8001H46.7924C46.7924 9.19174 39.7228 0.00341797 24.7436 0.00341797C9.62447 0.00341797 0 9.38291 0 26.182Z" fill="black"/>
	<path d="M65.6562 15.8528V20.8575L71.9305 20.8575L71.9305 42.621C71.9305 48.4306 75.2553 51.3355 81.1 51.3355H88.6596V46.0158H78.6501H78.0901L78.0901 20.8575H88.122V15.8527H78.0901L78.0901 4.03125H71.9305L71.9305 15.8527L65.6562 15.8528Z" fill="black"/>
	<path d="M53.2441 15.8481L53.2442 51.2982L59.3761 51.2992L59.376 15.8492L53.2441 15.8481Z" fill="black"/>
	<path d="M53.0957 9.93547V4.02271H59.3753V9.93547H53.0957Z" fill="black"/>
	<path d="M59.3789 15.8483V9.93555H65.6585V15.8483H59.3789Z" fill="black"/>
	<path d="M242.717 4.03125L239.582 12.7156V12.9004H241.073L241.861 10.5846H245.47L246.259 12.9004H247.786V12.7156L244.651 4.03125H242.717ZM242.298 9.30347L243.598 5.49096H243.727L245.033 9.30347H242.298Z" fill="black"/>
	<path d="M249.466 4.03125V12.9004H250.988V4.03125H249.466Z" fill="black"/>
	<path d="M93.5391 26.182C93.5391 42.9811 103.164 52.3606 118.283 52.3606C133.332 52.3606 140.472 43.0258 140.472 34.3015H134.218C133.927 39.6912 129.797 46.8309 118.388 46.8309C106.908 46.8309 100.049 39.3763 100.049 26.182C100.049 12.9877 106.908 5.53311 118.388 5.53311C129.762 5.53311 133.927 12.5677 134.078 17.7124H137.339H140.332C140.332 9.19174 133.262 0.00341797 118.283 0.00341797C103.164 0.00341797 93.5391 9.38291 93.5391 26.182Z" fill="black"/>
</svg>